#N canvas 540 103 908 708 12;
#X obj 408 201 noise~;
#X obj 112 155 vsl 15 128 2 4 0 1 empty empty Air 0 -9 0 10 -262144
-1 -1 6600 1;
#X obj 394 290 bp~ 500 4;
#X obj 622 218 phasor~;
#X obj 179 368 vsl 15 128 0 1 0 0 empty empty empty 0 -9 0 10 -262144
-1 -1 0 1;
#X obj 382 530 *~;
#X obj 595 172 expr~ $v1 * 200 + 10;
#X obj 685 451 phasor~;
#X obj 611 511 expr~ $v1 * 1362 + 10;
#X obj 416 92 inlet;
#X obj 274 155 vsl 15 128 0.005 0.5 1 1 empty empty Gain 0 -9 0 10
-262144 -1 -1 8800 1;
#X obj 598 261 *~ 0.5;
#X obj 147 155 vsl 15 128 0 0.5 0 1 empty empty Whine 0 -9 0 10 -262144
-1 -1 7700 1;
#X obj 190 155 vsl 15 128 0.0025 0.25 0 1 empty empty Chop 0 -9 0 10
-262144 -1 -1 2500 1;
#X obj 529 464 *~ 0.5;
#X obj 617 371 osc~ 3;
#X obj 378 404 *~ 1;
#X obj 420 342 expr~ $v3 * (1 - $v1 * $v2);
#X obj 224 155 vsl 15 128 1 10 0 1 empty empty ChopSpd 0 -9 0 10 -262144
-1 -1 1700 1;
#X obj 382 606 outlet~;
#X text 793 665 Borg5of9SF Audio toolkit;
#X obj 190 22 loadbang;
#X connect 0 0 2 0;
#X connect 1 0 2 2;
#X connect 2 0 17 2;
#X connect 3 0 11 0;
#X connect 4 0 6 0;
#X connect 4 0 8 0;
#X connect 4 0 14 0;
#X connect 5 0 19 0;
#X connect 6 0 3 0;
#X connect 7 0 11 0;
#X connect 8 0 7 0;
#X connect 9 0 4 0;
#X connect 10 0 14 1;
#X connect 11 0 2 0;
#X connect 12 0 11 1;
#X connect 13 0 17 0;
#X connect 14 0 5 1;
#X connect 15 0 17 1;
#X connect 16 0 5 0;
#X connect 17 0 16 0;
#X connect 18 0 15 0;
#X connect 21 0 1 0;
#X connect 21 0 12 0;
#X connect 21 0 13 0;
#X connect 21 0 18 0;
#X connect 21 0 10 0;
#X coords 0 -1 1 1 200 200 1 100 100;
