#N canvas 879 344 450 300 12;
#X obj 143 65 sporadic;
#X obj 157 158 *~;
#X msg 194 120 0;
#X obj 297 80 noise~;
#X msg 141 119 0.1;
#X text 340 245 Borg5of9SF Audio Toolkit;
#X obj 79 249 outlet~;
#X connect 0 0 4 0;
#X connect 0 1 2 0;
#X connect 1 0 6 0;
#X connect 2 0 1 1;
#X connect 3 0 1 0;
#X connect 4 0 1 1;
