#N canvas 376 329 797 478 12;
#X obj 330 118 bng 15 250 50 0 empty empty empty 17 7 0 10 -262144
-1 -1;
#X obj 235 57 loadbang;
#X obj 241 326 bng 15 250 50 0 empty empty empty 17 7 0 10 -262144
-1 -1;
#X obj 321 227 random 100;
#X obj 322 287 sel 0;
#X obj 257 418 outlet;
#X obj 341 420 outlet;
#X obj 349 329 bng 15 250 50 0 empty empty empty 17 7 0 10 -262144
-1 -1;
#X obj 346 169 metro 10;
#X obj 323 255 > 10;
#X connect 0 0 8 0;
#X connect 1 0 0 0;
#X connect 2 0 5 0;
#X connect 3 0 9 0;
#X connect 4 0 2 0;
#X connect 4 1 7 0;
#X connect 7 0 6 0;
#X connect 8 0 3 0;
#X connect 9 0 4 0;
